<svg width="30" height="30" viewBox="0 0 30 30" fill="none" xmlns="http://www.w3.org/2000/svg">
<path fill-rule="evenodd" clip-rule="evenodd" d="M19.0436 1.84831C16.9111 -0.616104 13.0889 -0.616105 10.9564 1.84831L10.0069 2.94555L8.55964 2.84106C5.30911 2.60639 2.60638 5.30911 2.84106 8.55964L2.94555 10.0069L1.84831 10.9564C-0.616104 13.0889 -0.616105 16.9111 1.84831 19.0436L2.94555 19.9931L2.84106 21.4404C2.60639 24.6909 5.30911 27.3936 8.55964 27.1589L10.0069 27.0544L10.9564 28.1517C13.0889 30.6161 16.9111 30.6161 19.0436 28.1517L19.9931 27.0544L21.4404 27.1589C24.6909 27.3936 27.3936 24.6909 27.1589 21.4404L27.0544 19.9931L28.1517 19.0436C30.6161 16.9111 30.6161 13.0889 28.1517 10.9564L27.0544 10.0069L27.1589 8.55964C27.3936 5.30911 24.6909 2.60639 21.4404 2.84106L19.9931 2.94555L19.0436 1.84831ZM21.5882 12.7147C22.295 12.0294 22.3123 10.9009 21.627 10.1942C20.9417 9.48749 19.8133 9.47013 19.1065 10.1554L12.9947 16.082L10.8935 14.0445C10.1867 13.3591 9.05828 13.3765 8.37297 14.0832C7.68767 14.79 7.70503 15.9184 8.41175 16.6037L11.7539 19.8446C12.4453 20.515 13.5442 20.515 14.2356 19.8446L21.5882 12.7147Z" fill="#FFC336"/>
</svg>
