<svg width="20" height="20" viewBox="0 0 32 32" fill="none" xmlns="http://www.w3.org/2000/svg">
<path d="M13.6467 17.441L13.9947 17.7785L14.3428 17.441L20.4546 11.5144C20.9631 11.0213 21.775 11.0338 22.2681 11.5423C22.7611 12.0508 22.7487 12.8627 22.2402 13.3558L14.8875 20.4856C14.3901 20.968 13.5994 20.968 13.1019 20.4856L9.75982 17.2448C9.25134 16.7517 9.23885 15.9398 9.73192 15.4313C10.225 14.9228 11.0369 14.9103 11.5454 15.4034L13.6467 17.441ZM20.4217 2.52114C18.0898 -0.173712 13.9102 -0.173713 11.5783 2.52114L10.7928 3.4288L9.59565 3.34236C6.04118 3.08574 3.08574 6.04118 3.34236 9.59565L3.4288 10.7928L2.52114 11.5783C-0.173712 13.9102 -0.173713 18.0898 2.52114 20.4217L3.4288 21.2072L3.34236 22.4044C3.08574 25.9588 6.04118 28.9143 9.59565 28.6576L10.7928 28.5712L11.5783 29.4789C13.9102 32.1737 18.0898 32.1737 20.4217 29.4789L21.2072 28.5712L22.4043 28.6576C25.9588 28.9143 28.9143 25.9588 28.6576 22.4044L28.5712 21.2072L29.4789 20.4217C32.1737 18.0898 32.1737 13.9102 29.4789 11.5783L28.5712 10.7928L28.6576 9.59565C28.9143 6.04118 25.9588 3.08574 22.4044 3.34236L21.2072 3.4288L20.4217 2.52114Z" fill="black" stroke="white"/>
</svg>
