<svg width="18" height="18" viewBox="0 0 18 18" fill="none" xmlns="http://www.w3.org/2000/svg">
<path d="M6.16278 2.73593L6.41283 2.75399L6.57688 2.56441L7.10956 1.94884C8.10655 0.796677 9.89351 0.796677 10.8905 1.94884L11.4232 2.56441L11.5872 2.75399L11.8373 2.73593L12.6492 2.67732C14.1689 2.5676 15.4325 3.83117 15.3227 5.35085L15.2641 6.16278L15.2461 6.41283L15.4357 6.57688L16.0512 7.10956C17.2034 8.10655 17.2034 9.89351 16.0512 10.8905L15.4357 11.4232L15.2461 11.5872L15.2641 11.8373L15.3227 12.6492C15.4325 14.1689 14.1689 15.4325 12.6492 15.3227L11.8373 15.2641L11.5872 15.2461L11.4232 15.4357L10.8905 16.0512C9.89351 17.2034 8.10655 17.2034 7.10956 16.0512L6.57688 15.4357L6.41283 15.2461L6.16278 15.2641L5.35085 15.3227C3.83117 15.4325 2.5676 14.1689 2.67732 12.6492L2.73593 11.8373L2.75399 11.5872L2.56441 11.4232L1.94884 10.8905C0.796677 9.89351 0.796677 8.10655 1.94884 7.10956L2.56441 6.57688L2.75399 6.41283L2.73593 6.16278L2.67732 5.35085C2.5676 3.83117 3.83117 2.5676 5.35085 2.67732L6.16278 2.73593ZM13.0442 8.07688C13.639 7.50017 13.6536 6.55054 13.0769 5.95581C12.5002 5.36108 11.5505 5.34647 10.9558 5.92318L7.87503 8.9106L7.04425 8.105C6.44952 7.52829 5.49989 7.5429 4.92318 8.13763C4.34647 8.73236 4.36108 9.68199 4.95581 10.2587L6.83081 12.0769C7.41264 12.6411 8.33742 12.6411 8.91925 12.0769L13.0442 8.07688Z" stroke="black"/>
</svg>
